<svg xmlns="http://www.w3.org/2000/svg" width="16" height="17" viewBox="0 0 16 17" fill="none">
  <path d="M8 0.5C12.2598 0.5 15.8374 3.90736 15.9949 8.2056L16 8.5C16 12.7598 12.5171 16.3374 8.28928 16.4949L8 16.5C3.74016 16.5 0.16256 13.0926 0.00512 8.7944L0 8.5C0 4.24016 3.40736 0.66256 7.7056 0.50512L8 0.5ZM8 6.12432L7.80928 6.13072C7.2147 6.18068 6.66045 6.45173 6.25595 6.89036C5.85144 7.32899 5.62607 7.90333 5.62432 8.5L5.63072 8.69072C5.68068 9.2853 5.95173 9.83955 6.39036 10.2441C6.82899 10.6486 7.40333 10.8739 8 10.8757L8.1792 10.8693C9.3696 10.7707 10.3757 9.70704 10.3757 8.5L10.3693 8.30928C10.3193 7.7147 10.0483 7.16045 9.60964 6.75595C9.17101 6.35144 8.59667 6.12607 8 6.12432Z" fill="#636366"/>
</svg>