<svg xmlns="http://www.w3.org/2000/svg" width="16" height="17" viewBox="0 0 16 17" fill="none">
  <path fill-rule="evenodd" clip-rule="evenodd" d="M4.3999 0.5C3.29533 0.5 2.3999 1.39543 2.3999 2.5V14.5C2.3999 15.6046 3.29533 16.5 4.3999 16.5H11.5999C12.7045 16.5 13.5999 15.6046 13.5999 14.5V2.5C13.5999 1.39543 12.7045 0.5 11.5999 0.5H4.3999ZM4.9999 2.1C4.44762 2.1 3.9999 2.54772 3.9999 3.1V4.3C3.9999 4.85228 4.44762 5.3 4.9999 5.3H10.9999C11.5522 5.3 11.9999 4.85228 11.9999 4.3V3.1C11.9999 2.54772 11.5522 2.1 10.9999 2.1H4.9999ZM4.7999 13.3C4.35807 13.3 3.9999 13.6582 3.9999 14.1C3.9999 14.5418 4.35807 14.9 4.7999 14.9H8.3999C8.84173 14.9 9.1999 14.5418 9.1999 14.1C9.1999 13.6582 8.84173 13.3 8.3999 13.3H4.7999ZM3.9999 10.9C3.9999 10.4582 4.35807 10.1 4.7999 10.1C5.24173 10.1 5.5999 10.4582 5.5999 10.9C5.5999 11.3418 5.24173 11.7 4.7999 11.7C4.35807 11.7 3.9999 11.3418 3.9999 10.9ZM7.9999 10.1C7.55807 10.1 7.1999 10.4582 7.1999 10.9C7.1999 11.3418 7.55807 11.7 7.9999 11.7C8.44173 11.7 8.7999 11.3418 8.7999 10.9C8.7999 10.4582 8.44173 10.1 7.9999 10.1ZM10.3999 10.9C10.3999 10.4582 10.7581 10.1 11.1999 10.1C11.6417 10.1 11.9999 10.4582 11.9999 10.9C11.9999 11.3418 11.6417 11.7 11.1999 11.7C10.7581 11.7 10.3999 11.3418 10.3999 10.9ZM4.7999 6.9C4.35807 6.9 3.9999 7.25817 3.9999 7.7C3.9999 8.14183 4.35807 8.5 4.7999 8.5C5.24173 8.5 5.5999 8.14183 5.5999 7.7C5.5999 7.25817 5.24173 6.9 4.7999 6.9ZM7.1999 7.7C7.1999 7.25817 7.55807 6.9 7.9999 6.9C8.44173 6.9 8.7999 7.25817 8.7999 7.7C8.7999 8.14183 8.44173 8.5 7.9999 8.5C7.55807 8.5 7.1999 8.14183 7.1999 7.7ZM11.1999 6.9C10.7581 6.9 10.3999 7.25817 10.3999 7.7C10.3999 8.14183 10.7581 8.5 11.1999 8.5C11.6417 8.5 11.9999 8.14183 11.9999 7.7C11.9999 7.25817 11.6417 6.9 11.1999 6.9ZM10.3999 14.1C10.3999 13.6582 10.7581 13.3 11.1999 13.3C11.6417 13.3 11.9999 13.6582 11.9999 14.1C11.9999 14.5418 11.6417 14.9 11.1999 14.9C10.7581 14.9 10.3999 14.5418 10.3999 14.1Z" fill="#636366"/>
</svg>