<svg xmlns="http://www.w3.org/2000/svg" width="16" height="16" viewBox="0 0 16 16" fill="none">
  <path d="M3.39687 8.43952H0V9.104H2.90861L3.39687 8.43952ZM0 10.3333H2.00318L2.48924 9.67337H0V10.3333ZM4.30511 7.20654H0V7.87015H3.81588L4.30511 7.20654ZM10.0367 6.9831C9.87197 7.20603 9.59609 7.59438 9.42828 7.82084C9.3431 7.93571 9.1891 8.14545 9.69956 8.14545H12.2873C12.2873 8.14545 12.7201 7.55632 13.0831 7.06393C13.5768 6.39386 13.1257 5 11.361 5H4.41115L3.2062 6.63713H9.87133C10.2032 6.63713 10.1989 6.76323 10.0367 6.9831ZM13.6945 7.20658L13.2085 7.86654H16V7.20658H13.6945ZM11.8631 8.71479H8.88123L7.74892 8.71473C7.23856 8.71473 7.39259 8.50498 7.47777 8.38987C7.64558 8.16322 7.92804 7.77552 8.09278 7.55234C8.25496 7.33248 8.35552 7.2065 8.02348 7.2065H5.02009L2.71859 10.3333H8.62054C10.3707 10.3333 11.4241 9.26483 11.8631 8.71479ZM12.3009 9.10035H16V8.43588H12.7891L12.3009 9.10035ZM11.3949 10.3333H16V9.66971H11.8825L11.3949 10.3333Z" fill="#636366"/>
</svg>