<svg xmlns="http://www.w3.org/2000/svg" width="17" height="16" viewBox="0 0 17 16" fill="none">
  <path d="M15.8735 10.1677C15.8615 9.85724 16.1322 9.60449 16.436 9.60149C16.5104 9.60078 16.5842 9.61496 16.6531 9.6432C16.722 9.67143 16.7846 9.71315 16.8371 9.76591C16.8897 9.81866 16.9311 9.88138 16.9591 9.95039C16.9871 10.0194 17.001 10.0933 17 10.1677C16.998 10.3161 16.9379 10.4578 16.8325 10.5622C16.7272 10.6667 16.5851 10.7257 16.4367 10.7265C16.1405 10.728 15.8675 10.467 15.8735 10.1677ZM16.4427 10.1055C16.493 10.0905 16.5657 10.074 16.5642 10.008C16.5695 9.94049 16.4997 9.90824 16.4427 9.90749H16.3205V10.1047C16.3205 10.1055 16.4442 10.1032 16.4427 10.1055ZM16.3205 10.1857V10.4992H16.2155V9.81674H16.4607C16.5777 9.80099 16.6812 9.88574 16.6752 10.0065C16.6723 10.0393 16.6596 10.0704 16.6387 10.0958C16.6178 10.1212 16.5898 10.1398 16.5582 10.149C16.6797 10.2112 16.6392 10.3905 16.688 10.4992H16.571C16.5587 10.4485 16.5487 10.3972 16.541 10.3455C16.5275 10.2757 16.5057 10.1737 16.4135 10.1857H16.3205ZM16.8904 10.1677C16.8934 10.1064 16.8838 10.0451 16.8623 9.98763C16.8408 9.93013 16.8079 9.8776 16.7654 9.83325C16.723 9.7889 16.6719 9.75366 16.6154 9.72968C16.5589 9.70569 16.4981 9.69347 16.4367 9.69374C16.1832 9.68474 15.9717 9.92024 15.983 10.1677C15.9823 10.2895 16.0295 10.4065 16.1144 10.4938C16.1993 10.5811 16.315 10.6315 16.4367 10.6342C16.4972 10.6338 16.5571 10.6213 16.6127 10.5975C16.6684 10.5737 16.7188 10.5391 16.761 10.4957C16.8032 10.4524 16.8364 10.401 16.8586 10.3447C16.8808 10.2884 16.8916 10.2283 16.8904 10.1677ZM13.1015 9.73349L12.443 10.4895H11.4635L12.6327 9.18074L11.4627 7.86825H12.479L13.1555 8.61599L13.814 7.86749H14.7935L13.6362 9.17474L14.8055 10.4895H13.7772L13.1015 9.73349ZM9.57422 9.46949V8.84924H11.0022V7.71975L12.2952 9.18074L11.0022 10.6365V9.46949H9.57422ZM10.7442 10.4895H8.34422V6.22725H10.7622V6.99525H9.32747V7.86749H10.7435V8.58599H9.31547V9.72749H10.7435V10.4895H10.7442ZM6.46548 9.99824C6.06048 10.011 5.80698 9.58424 5.80773 9.21824C5.80023 8.83799 6.03798 8.37599 6.46623 8.38949C6.90048 8.37074 7.11948 8.83949 7.09998 9.21674C7.11723 9.59249 6.88248 10.0132 6.46548 9.99824ZM2.55724 8.75174C2.61424 8.48324 2.85949 8.24924 3.14224 8.25449C3.28593 8.24995 3.42635 8.29793 3.5372 8.38946C3.64806 8.48099 3.72175 8.60979 3.74449 8.75174H2.55724ZM13.9437 9.17474L15.305 7.6395H13.7112L13.1562 8.27249L12.584 7.6395H9.55622V7.2285H10.9902V6H7.12998V7.93499C6.85848 7.599 6.39423 7.51575 5.98548 7.566C5.39898 7.65825 4.91523 8.13749 4.75998 8.70149C4.56948 7.98299 3.87574 7.5105 3.14224 7.536C2.55649 7.54275 1.94224 7.80974 1.65199 8.33924V7.72575H0.249497V7.05075H1.78174V6.00075H-1V10.716H0.249497V8.73299H1.49899C1.47207 8.88758 1.45156 9.04321 1.43749 9.19949C1.42774 10.1235 2.21899 10.902 3.14299 10.8765C3.49146 10.891 3.83561 10.795 4.12619 10.6021C4.41676 10.4092 4.63887 10.1293 4.76073 9.80249H3.69049C3.58549 10.0035 3.35974 10.0875 3.14299 10.0725C2.80024 10.0792 2.52049 9.75974 2.52124 9.42749H4.70673C4.76898 10.1977 5.44773 10.902 6.23898 10.8877C6.4145 10.8815 6.58624 10.835 6.74098 10.7519C6.89571 10.6688 7.02931 10.5513 7.13148 10.4085V10.716H12.5427L13.1082 10.071L13.6737 10.716H15.3177L13.9437 9.17474Z" fill="#636366"/>
</svg>