<svg xmlns="http://www.w3.org/2000/svg" width="16" height="16" viewBox="0 0 16 16" fill="none">
  <g clip-path="url(#clip0_594_1781)">
    <path fill-rule="evenodd" clip-rule="evenodd" d="M8 16C12.4183 16 16 12.4183 16 8C16 3.58172 12.4183 0 8 0C3.58172 0 0 3.58172 0 8C0 12.4183 3.58172 16 8 16ZM5.35355 4.74361C5.15829 4.54835 4.84171 4.54835 4.64645 4.74361C4.45118 4.93888 4.45118 5.25546 4.64645 5.45072L7.29289 8.09717L4.64645 10.7436C4.45118 10.9389 4.45118 11.2555 4.64645 11.4507C4.84171 11.646 5.15829 11.646 5.35355 11.4507L8 8.80427L10.6464 11.4507C10.8417 11.646 11.1583 11.646 11.3536 11.4507C11.5488 11.2555 11.5488 10.9389 11.3536 10.7436L8.70711 8.09717L11.3536 5.45072C11.5488 5.25546 11.5488 4.93888 11.3536 4.74361C11.1583 4.54835 10.8417 4.54835 10.6464 4.74361L8 7.39006L5.35355 4.74361Z" fill="#636366"/>
  </g>
  <defs>
    <clipPath id="clip0_594_1781">
      <rect width="16" height="16" fill="white"/>
    </clipPath>
  </defs>
</svg>