<svg xmlns="http://www.w3.org/2000/svg" width="16" height="16" viewBox="0 0 16 16" fill="none">
  <g clip-path="url(#clip0_584_12289)">
    <path d="M8.0002 0.234619C5.94092 0.235326 3.96619 1.05368 2.51006 2.50981C1.05393 3.96594 0.23557 5.94067 0.234863 7.99995C0.23557 10.0592 1.05393 12.034 2.51006 13.4901C3.96619 14.9462 5.94092 15.7646 8.0002 15.7653C10.0595 15.7646 12.0342 14.9462 13.4903 13.4901C14.9465 12.034 15.7648 10.0592 15.7655 7.99995C15.7648 5.94067 14.9465 3.96594 13.4903 2.50981C12.0342 1.05368 10.0595 0.235326 8.0002 0.234619ZM8.02153 13.7386C6.5052 13.7386 5.05097 13.1363 3.97876 12.0641C2.90656 10.9918 2.3042 9.53762 2.3042 8.02129C2.3042 6.50495 2.90656 5.05073 3.97876 3.97852C5.05097 2.90631 6.5052 2.30395 8.02153 2.30395C9.53786 2.30395 10.9921 2.90631 12.0643 3.97852C13.1365 5.05073 13.7389 6.50495 13.7389 8.02129C13.7389 9.53762 13.1365 10.9918 12.0643 12.0641C10.9921 13.1363 9.53786 13.7386 8.02153 13.7386ZM9.96286 7.70395C10.1801 7.71018 10.3964 7.67276 10.599 7.59391C10.8016 7.51506 10.9862 7.39639 11.1421 7.24491C11.298 7.09343 11.4219 6.91222 11.5065 6.71201C11.5911 6.5118 11.6347 6.29665 11.6347 6.07929C11.6347 5.86193 11.5911 5.64677 11.5065 5.44656C11.4219 5.24635 11.298 5.06514 11.1421 4.91366C10.9862 4.76218 10.8016 4.64351 10.599 4.56466C10.3964 4.48581 10.1801 4.44839 9.96286 4.45462C9.54003 4.46673 9.13858 4.64322 8.84379 4.94658C8.54899 5.24994 8.38408 5.65628 8.38408 6.07929C8.38408 6.50229 8.54899 6.90863 8.84379 7.21199C9.13858 7.51536 9.54003 7.69184 9.96286 7.70395ZM9.96286 11.5866C10.1801 11.5928 10.3964 11.5554 10.599 11.4766C10.8016 11.3977 10.9862 11.2791 11.1421 11.1276C11.298 10.9761 11.4219 10.7949 11.5065 10.5947C11.5911 10.3945 11.6347 10.1793 11.6347 9.96195C11.6347 9.74459 11.5911 9.52944 11.5065 9.32923C11.4219 9.12901 11.298 8.94781 11.1421 8.79633C10.9862 8.64485 10.8016 8.52617 10.599 8.44733C10.3964 8.36848 10.1801 8.33106 9.96286 8.33729C9.54003 8.3494 9.13858 8.52588 8.84379 8.82924C8.54899 9.13261 8.38408 9.53895 8.38408 9.96195C8.38408 10.385 8.54899 10.7913 8.84379 11.0947C9.13858 11.398 9.54003 11.5745 9.96286 11.5866ZM6.0802 11.5866C6.29747 11.5928 6.51378 11.5554 6.71633 11.4766C6.91889 11.3977 7.10357 11.2791 7.25945 11.1276C7.41533 10.9761 7.53925 10.7949 7.62386 10.5947C7.70848 10.3945 7.75208 10.1793 7.75208 9.96195C7.75208 9.74459 7.70848 9.52944 7.62386 9.32923C7.53925 9.12901 7.41533 8.94781 7.25945 8.79633C7.10357 8.64485 6.91889 8.52617 6.71633 8.44733C6.51378 8.36848 6.29747 8.33106 6.0802 8.33729C5.65736 8.3494 5.25591 8.52588 4.96112 8.82924C4.66632 9.13261 4.50141 9.53895 4.50141 9.96195C4.50141 10.385 4.66632 10.7913 4.96112 11.0947C5.25591 11.398 5.65736 11.5745 6.0802 11.5866ZM6.0802 7.70395C6.29747 7.71018 6.51378 7.67276 6.71633 7.59391C6.91889 7.51506 7.10357 7.39639 7.25945 7.24491C7.41533 7.09343 7.53925 6.91222 7.62386 6.71201C7.70848 6.5118 7.75208 6.29665 7.75208 6.07929C7.75208 5.86193 7.70848 5.64677 7.62386 5.44656C7.53925 5.24635 7.41533 5.06514 7.25945 4.91366C7.10357 4.76218 6.91889 4.64351 6.71633 4.56466C6.51378 4.48581 6.29747 4.44839 6.0802 4.45462C5.65736 4.46673 5.25591 4.64322 4.96112 4.94658C4.66632 5.24994 4.50141 5.65628 4.50141 6.07929C4.50141 6.50229 4.66632 6.90863 4.96112 7.21199C5.25591 7.51536 5.65736 7.69184 6.0802 7.70395Z" fill="#636366"/>
  </g>
  <defs>
    <clipPath id="clip0_584_12289">
      <rect width="16" height="16" fill="white"/>
    </clipPath>
  </defs>
</svg>