<svg xmlns="http://www.w3.org/2000/svg" width="16" height="16" viewBox="0 0 16 16" fill="none">
  <path fill-rule="evenodd" clip-rule="evenodd" d="M12.7799 14.5946H12.6932V14.8986H12.7372C12.9106 14.8986 12.9532 14.812 12.9532 14.7253C12.9532 14.6813 12.9106 14.5946 12.7799 14.5946ZM12.8239 14.1173C13.0399 14.1249 13.2449 14.2142 13.3976 14.3672C13.5503 14.5201 13.6393 14.7253 13.6466 14.9413C13.6463 15.1039 13.5978 15.2629 13.5073 15.398C13.4167 15.5331 13.2882 15.6383 13.1378 15.7004C12.9875 15.7625 12.8221 15.7786 12.6626 15.7467C12.5031 15.7148 12.3566 15.6363 12.2417 15.5212C12.1268 15.4061 12.0486 15.2595 12.017 15.1C11.9853 14.9404 12.0017 14.7751 12.064 14.6248C12.1263 14.4746 12.2317 14.3462 12.367 14.2558C12.5023 14.1655 12.6613 14.1173 12.8239 14.1173ZM13.2106 15.456C13.2909 15.396 13.3565 15.3184 13.4022 15.2292C13.448 15.14 13.4727 15.0415 13.4746 14.9413C13.476 14.8555 13.4602 14.7702 13.428 14.6906C13.3958 14.611 13.3479 14.5387 13.2872 14.478C13.2265 14.4173 13.1542 14.3694 13.0746 14.3372C12.995 14.305 12.9098 14.2892 12.8239 14.2906C12.6526 14.2947 12.4895 14.3645 12.3683 14.4857C12.2472 14.6069 12.1773 14.77 12.1732 14.9413C12.1773 15.1126 12.2472 15.2757 12.3683 15.3969C12.4895 15.518 12.6526 15.5879 12.8239 15.592C12.9614 15.5909 13.0948 15.545 13.2039 15.4613H12.9972L12.7372 15.0706H12.6932V15.4613H12.5199V14.464H12.7799C13.0399 14.464 13.1266 14.6373 13.1266 14.768C13.1266 14.8986 13.0399 14.9853 12.9106 15.028C12.9506 15.068 13.1799 15.4106 13.2106 15.456ZM1.73991 9.3893C1.73991 10.8426 2.30391 12.032 3.39591 12.856C4.38258 13.6173 7.30658 14.84 8.11725 15.1706C8.92791 14.84 11.8879 13.584 12.8372 12.8573C13.9306 12.0306 14.4946 10.8093 14.4946 9.3893V1.79063C10.4079 1.42796 5.54658 1.62663 1.73991 4.9293V9.3893ZM8.10791 0.237295H8.15991L8.47458 0.235962C9.50125 0.245295 12.5506 0.387962 15.0586 1.65863V9.35596C15.0586 10.908 14.4586 12.2626 13.1919 13.2546C11.9932 14.1786 8.11725 15.7653 8.11725 15.7653C8.11725 15.7653 4.24125 14.1786 3.04391 13.2866C1.77591 12.296 1.17725 10.9413 1.17725 9.3893V1.65863C3.68258 0.387962 6.73325 0.245295 7.75991 0.235962H8.07458L8.10658 0.237295H8.10791ZM8.15058 4.97596C7.50391 4.97596 6.99191 5.10129 6.54791 5.3533V12.4706H7.70791V10.172C7.81058 10.2026 7.98125 10.2346 8.25458 10.2346C9.58391 10.2346 10.3346 9.13196 10.3346 7.5573C10.3346 5.95196 9.55058 4.97596 8.15058 4.97596ZM3.54658 5.03863H2.35325V8.47063C2.35325 9.63596 2.96658 10.2346 4.12658 10.2346C4.84258 10.2346 5.45725 10.0773 5.89991 9.79463V5.0373H4.70658V9.16263C4.56925 9.25596 4.39991 9.2893 4.15991 9.2893C3.61458 9.2893 3.54658 8.81596 3.54658 8.53196V5.03996V5.03863ZM12.1426 4.9453C11.3586 4.97596 10.5399 5.47863 10.5399 6.3613C10.5746 6.95996 10.7786 7.39996 11.7332 7.90396C12.2452 8.18796 12.4492 8.3773 12.4839 8.72263C12.4839 9.1013 12.2106 9.3213 11.7666 9.3213C11.3919 9.3213 10.9492 9.13196 10.6426 8.8813V9.88796C11.0159 10.0773 11.4599 10.2346 11.9372 10.2346C13.0972 10.2346 13.6439 9.47996 13.6439 8.78663C13.6772 8.15596 13.4732 7.6533 12.4839 7.1173C12.0399 6.86396 11.6986 6.70663 11.6986 6.33063C11.6986 5.95196 12.0746 5.79463 12.3812 5.79463C12.7906 5.79463 13.1999 6.01463 13.4386 6.23463V5.29063C13.2346 5.1333 12.7906 4.91196 12.1426 4.94396V4.9453ZM8.11725 5.79463C8.79991 5.79463 9.07191 6.2973 9.07191 7.52663C9.07191 8.72263 8.73058 9.29063 8.04925 9.29063C7.92136 9.2942 7.79403 9.27244 7.67458 9.22663V5.88796H7.70791C7.81058 5.8573 7.98125 5.79463 8.11725 5.79463Z" fill="#636366"/>
</svg>