<svg xmlns="http://www.w3.org/2000/svg" width="16" height="17" viewBox="0 0 16 17" fill="none">
  <path fill-rule="evenodd" clip-rule="evenodd" d="M8.00063 0.5L0 4.7686V5.85057H16V4.7686L8.00063 0.5ZM0 16.5H16V15.9451H0V16.5ZM0.506639 15.4332H15.4934V14.8783H0.506639V15.4332ZM4.78856 14.3651H7.46759V13.8102H4.78856V14.3651ZM1.06482 14.3651H3.74385V13.8102H1.06482V14.3651ZM1.60918 13.5971H3.19824V7.14565H1.60918V13.5971ZM5.33291 13.5971H6.92198V7.14565H5.33291V13.5971ZM9.07802 13.5971H10.6671V7.14565H9.07802V13.5971ZM12.8018 13.5971H14.3908V7.14565H12.8018V13.5971ZM12.2561 14.3651H14.9352V13.8102H12.2561V14.3651ZM8.53367 14.3651H11.2127V13.8102H8.53367V14.3651ZM4.78856 6.90984H7.46759V6.35498H4.78856V6.90984ZM1.06482 6.90984H3.74385V6.35498H1.06482V6.90984ZM12.2561 6.90984H14.9352V6.35498H12.2561V6.90984ZM8.53367 6.90984H11.2127V6.35498H8.53367V6.90984Z" fill="#636366"/>
</svg>