<svg xmlns="http://www.w3.org/2000/svg" width="16" height="17" viewBox="0 0 16 17" fill="none">
  <path fill-rule="evenodd" clip-rule="evenodd" d="M4.04004 6.73333C4.37694 7.73899 5.61013 11.3204 9.86911 12.4379C10.5416 11.5442 11.0671 11.0338 12.7843 11.3191C14.8006 11.656 16.3707 12.3261 15.9232 14.0043C15.5838 15.2701 15.0256 15.4587 14.1281 16.2419C13.5951 16.707 11.4379 16.4656 10.206 16.1287C8.97281 15.7943 4.9376 14.4518 2.35933 10.761C-0.217678 7.06771 0.00482473 3.93759 0.00482473 3.15191C0.00482473 2.37001 0.790498 1.81061 1.01426 1.58559C1.23927 1.36183 1.81376 0.186467 3.25688 0.579932C4.48882 0.915572 4.9376 2.37001 5.04948 2.81753C5.16136 3.26379 5.38511 3.93633 5.38511 4.38385C5.38511 4.83011 5.38512 5.50265 4.9376 5.94891C4.48882 6.39643 4.0413 6.73207 4.0413 6.73207" fill="#636366"/>
</svg>