<svg xmlns="http://www.w3.org/2000/svg" width="16" height="17" viewBox="0 0 16 17" fill="none">
  <path fill-rule="evenodd" clip-rule="evenodd" d="M7.73294 0.5C10.6779 0.5 13.0655 3.01786 13.0655 6.12352C13.0655 6.94834 12.94 7.75321 12.5915 8.43488C12.1902 9.21629 11.4159 10.5327 10.6004 11.8785L10.1393 12.634C9.06461 14.3904 8.02743 16.033 7.78574 16.4155L7.73294 16.5C7.73294 16.5 6.55497 14.6415 5.32655 12.634L4.86545 11.8785C4.05002 10.5327 3.27448 9.21511 2.8744 8.43371C2.52593 7.75321 2.40039 6.94834 2.40039 6.12352C2.40039 3.01786 4.78801 0.5 7.73294 0.5ZM7.73294 3.64087C6.33674 3.64087 5.20453 4.83526 5.20453 6.30773C5.20453 7.78019 6.33674 8.97459 7.73294 8.97459C9.12914 8.97459 10.2614 7.78019 10.2614 6.30773C10.2614 4.83526 9.12914 3.64087 7.73294 3.64087Z" fill="#636366"/>
</svg>