<svg xmlns="http://www.w3.org/2000/svg" width="16" height="17" viewBox="0 0 16 17" fill="none">
  <path d="M7.99613 16.5C12.3809 16.5 16 12.8791 16 8.5C16 4.12089 12.3731 0.5 7.9884 0.5C3.61141 0.5 0 4.12089 0 8.5C0 12.8791 3.61914 16.5 7.99613 16.5ZM4.0986 9.47486C3.7506 9.47486 3.47994 9.20406 3.47994 8.8559C3.47994 8.50774 3.7506 8.23694 4.0986 8.23694H7.37748V3.79594C7.37748 3.44778 7.64814 3.17698 7.9884 3.17698C8.34413 3.17698 8.61479 3.44778 8.61479 3.79594V8.8559C8.61479 9.20406 8.34413 9.47486 7.9884 9.47486H4.0986Z" fill="#636366"/>
</svg>