<svg xmlns="http://www.w3.org/2000/svg" width="16" height="17" viewBox="0 0 16 17" fill="none">
  <path fill-rule="evenodd" clip-rule="evenodd" d="M4.90039 0.5C3.51968 0.5 2.40039 1.61929 2.40039 3V14C2.40039 15.3807 3.51968 16.5 4.90039 16.5H11.1004C12.4811 16.5 13.6004 15.3807 13.6004 14V3C13.6004 1.61929 12.4811 0.5 11.1004 0.5H4.90039ZM5.60039 2.1C4.71673 2.1 4.00039 2.81634 4.00039 3.7C4.00039 4.58366 4.71673 5.3 5.60039 5.3H10.4004C11.284 5.3 12.0004 4.58366 12.0004 3.7C12.0004 2.81634 11.284 2.1 10.4004 2.1H5.60039ZM4.80039 13.3C4.35856 13.3 4.00039 13.6582 4.00039 14.1C4.00039 14.5418 4.35856 14.9 4.80039 14.9H8.40039C8.84222 14.9 9.20039 14.5418 9.20039 14.1C9.20039 13.6582 8.84222 13.3 8.40039 13.3H4.80039ZM4.00039 10.9C4.00039 10.4582 4.35856 10.1 4.80039 10.1C5.24222 10.1 5.60039 10.4582 5.60039 10.9C5.60039 11.3418 5.24222 11.7 4.80039 11.7C4.35856 11.7 4.00039 11.3418 4.00039 10.9ZM8.00039 10.1C7.55856 10.1 7.20039 10.4582 7.20039 10.9C7.20039 11.3418 7.55856 11.7 8.00039 11.7C8.44222 11.7 8.80039 11.3418 8.80039 10.9C8.80039 10.4582 8.44222 10.1 8.00039 10.1ZM10.4004 10.9C10.4004 10.4582 10.7586 10.1 11.2004 10.1C11.6422 10.1 12.0004 10.4582 12.0004 10.9C12.0004 11.3418 11.6422 11.7 11.2004 11.7C10.7586 11.7 10.4004 11.3418 10.4004 10.9ZM4.80039 6.9C4.35856 6.9 4.00039 7.25817 4.00039 7.7C4.00039 8.14183 4.35856 8.5 4.80039 8.5C5.24222 8.5 5.60039 8.14183 5.60039 7.7C5.60039 7.25817 5.24222 6.9 4.80039 6.9ZM7.20039 7.7C7.20039 7.25817 7.55856 6.9 8.00039 6.9C8.44222 6.9 8.80039 7.25817 8.80039 7.7C8.80039 8.14183 8.44222 8.5 8.00039 8.5C7.55856 8.5 7.20039 8.14183 7.20039 7.7ZM11.2004 6.9C10.7586 6.9 10.4004 7.25817 10.4004 7.7C10.4004 8.14183 10.7586 8.5 11.2004 8.5C11.6422 8.5 12.0004 8.14183 12.0004 7.7C12.0004 7.25817 11.6422 6.9 11.2004 6.9ZM10.4004 14.1C10.4004 13.6582 10.7586 13.3 11.2004 13.3C11.6422 13.3 12.0004 13.6582 12.0004 14.1C12.0004 14.5418 11.6422 14.9 11.2004 14.9C10.7586 14.9 10.4004 14.5418 10.4004 14.1Z" fill="#636366"/>
</svg>