<svg xmlns="http://www.w3.org/2000/svg" width="16" height="17" viewBox="0 0 16 17" fill="none">
  <path d="M5.17086 3.16495V3.85722H10.8362V3.16495C10.8362 2.84707 10.6172 2.64221 10.264 2.64221H5.73598C5.38985 2.64221 5.17086 2.84707 5.17086 3.16495ZM7.99647 8.13095C5.22031 8.13095 2.5713 7.70711 0 6.63338V6.11771C0 4.6272 0.777042 3.85722 2.28168 3.85722H3.70155V3.10137C3.70155 1.97113 4.42914 1.30005 5.64415 1.30005H10.3559C11.5709 1.30005 12.2985 1.97113 12.2985 3.10137V3.85722H13.7183C15.23 3.85722 16 4.6272 16 6.11771V6.63338C13.4287 7.70711 10.7797 8.13095 7.99647 8.13095ZM2.28168 15.2727C0.777042 15.2727 0 14.5098 0 13.0122V7.97555C2.14746 8.75965 4.083 9.12698 6.03973 9.27533V9.83338C6.03973 10.3702 6.35055 10.6669 6.89448 10.6669H9.09845C9.64945 10.6669 9.96027 10.3702 9.96027 9.83338V9.27533C11.917 9.12698 13.8525 8.75965 16 7.97555V13.0122C16 14.5098 15.23 15.2727 13.7183 15.2727H2.28168Z" fill="#636366"/>
</svg>