<svg xmlns="http://www.w3.org/2000/svg" width="16" height="15" viewBox="0 0 16 15" fill="none">
  <path opacity="0.2" fill-rule="evenodd" clip-rule="evenodd" d="M1.02036 10.6808C1.2834 10.3536 1.77137 10.2942 2.11028 10.5482C2.1979 10.6138 2.29947 10.6796 2.41619 10.744L5.65933 12.5333C6.29648 12.8849 7.18076 13.082 8.10721 13.082C9.03367 13.082 9.91795 12.8849 10.5551 12.5333L13.7982 10.744C13.915 10.6796 14.0165 10.6138 14.1042 10.5482C14.4431 10.2942 14.931 10.3536 15.1941 10.6808C15.4571 11.008 15.3956 11.4792 15.0567 11.7331C14.907 11.8454 14.744 11.9498 14.569 12.0464L11.3259 13.8357C10.3983 14.3475 9.23165 14.582 8.10721 14.582C6.98278 14.582 5.81617 14.3475 4.88854 13.8357L1.6454 12.0464C1.47039 11.9498 1.30744 11.8453 1.15772 11.7331C0.818818 11.4792 0.757317 11.008 1.02036 10.6808Z" fill="white"/>
  <path opacity="0.55" d="M5.2739 0.647493C6.83868 -0.215831 9.37568 -0.215831 10.9405 0.647493L14.1836 2.43681C15.7484 3.30014 15.7484 4.69986 14.1836 5.56319L10.9405 7.35251C9.37568 8.21583 6.83868 8.21583 5.2739 7.35251L2.03076 5.56319C0.465984 4.69986 0.465984 3.30014 2.03076 2.43681L5.2739 0.647493Z" fill="white"/>
  <path opacity="0.3" fill-rule="evenodd" clip-rule="evenodd" d="M1.02036 7.38979C1.2834 7.06257 1.77137 7.00319 2.11028 7.25716C2.1979 7.32282 2.29947 7.38861 2.41619 7.453L5.65933 9.24232C6.29648 9.59385 7.18076 9.791 8.10721 9.791C9.03367 9.791 9.91795 9.59385 10.5551 9.24232L13.7982 7.453C13.915 7.3886 14.0165 7.32282 14.1042 7.25717C14.4431 7.0032 14.931 7.06258 15.1941 7.3898C15.4571 7.71702 15.3956 8.18816 15.0567 8.44213C14.907 8.55434 14.744 8.65882 14.569 8.75537L11.3259 10.5447C10.3983 11.0565 9.23165 11.291 8.10721 11.291C6.98278 11.291 5.81617 11.0565 4.88854 10.5447L1.6454 8.75537C1.47039 8.65881 1.30744 8.55432 1.15772 8.44213C0.818818 8.18816 0.757317 7.71701 1.02036 7.38979Z" fill="white"/>
</svg>