<svg xmlns="http://www.w3.org/2000/svg" width="16" height="16" viewBox="0 0 16 16" fill="none">
  <path d="M14.7522 5.83334C14.8589 6.31867 14.8455 6.908 14.7175 7.60134C14.2042 10.1667 12.5415 11.4493 9.72688 11.4493H9.33888C9.19598 11.4474 9.05738 11.4982 8.94955 11.592C8.8382 11.6863 8.76323 11.8164 8.73755 11.96L8.70288 12.1253L8.21621 15.124L8.19888 15.2533C8.17378 15.3967 8.09892 15.5267 7.98747 15.6203C7.87602 15.714 7.73512 15.7653 7.58955 15.7653H5.37355C5.31806 15.7678 5.26275 15.7573 5.21204 15.7346C5.16134 15.712 5.11665 15.6777 5.08155 15.6347C5.04641 15.5916 5.02107 15.5413 5.00725 15.4875C4.99344 15.4336 4.99149 15.3774 5.00155 15.3227C5.05488 14.9987 5.13355 14.5133 5.23621 13.8667C5.38962 12.8971 5.54696 11.9283 5.70821 10.96L5.94821 9.50667C5.97621 9.29334 6.10288 9.18667 6.32688 9.18667H7.48421C8.18353 9.20601 8.88275 9.14516 9.56821 9.00534C10.5989 8.78 11.4429 8.364 12.1015 7.75734C12.7029 7.208 13.1602 6.49734 13.4722 5.62534C13.6135 5.22134 13.7162 4.83734 13.7802 4.47334C13.7869 4.43867 13.7935 4.416 13.8029 4.408C13.8066 4.40377 13.8115 4.40066 13.8169 4.39901C13.8223 4.39736 13.8281 4.39725 13.8335 4.39867C13.8455 4.40267 13.8629 4.412 13.8869 4.42934C14.3522 4.77067 14.6402 5.23867 14.7522 5.83334ZM13.2322 3.38934C13.2322 4.008 13.0989 4.68934 12.8269 5.43467C12.3562 6.78134 11.4669 7.69067 10.1602 8.164C9.44231 8.40394 8.69048 8.52684 7.93355 8.528C7.93355 8.53467 7.66955 8.53734 7.13888 8.53734L6.34421 8.528C5.75621 8.528 5.40821 8.80534 5.30288 9.36C5.04728 10.8902 4.79706 12.4214 4.55221 13.9533C4.54555 14.0107 4.51088 14.04 4.44555 14.04H1.84021C1.77924 14.0415 1.71868 14.0295 1.66289 14.0048C1.60711 13.9802 1.55747 13.9435 1.51755 13.8973C1.47636 13.8532 1.44582 13.8002 1.42825 13.7424C1.41069 13.6846 1.40657 13.6236 1.41621 13.564L3.46688 0.816003C3.49338 0.652677 3.57875 0.504701 3.70688 0.400003C3.83367 0.292088 3.99506 0.233402 4.16155 0.23467H9.44288C9.64288 0.23467 9.93088 0.273336 10.3042 0.348003C10.6775 0.42267 11.0069 0.516003 11.2895 0.625336C11.9189 0.86267 12.4002 1.21734 12.7322 1.692C13.0655 2.16534 13.2322 2.732 13.2322 3.38934Z" fill="white"/>
</svg>