<svg xmlns="http://www.w3.org/2000/svg" width="16" height="16" viewBox="0 0 16 16" fill="none">
  <g clip-path="url(#clip0_584_12073)">
    <path fill-rule="evenodd" clip-rule="evenodd" d="M16 7.9C16 6.77467 15.4493 5.88667 14.396 5.88667C13.3373 5.88667 12.6973 6.77467 12.6973 7.88933C12.6973 9.212 13.4533 9.88 14.5373 9.88C15.0667 9.88 15.4667 9.76 15.7693 9.59467V8.71467C15.4306 8.88065 15.0572 8.96382 14.68 8.95733C14.2493 8.95733 13.8667 8.808 13.8173 8.29067H15.9907C15.9907 8.232 16 8.004 16 7.89867V7.9ZM13.804 7.48133C13.804 6.98533 14.1107 6.77867 14.3907 6.77867C14.6627 6.77867 14.9507 6.98533 14.9507 7.48133H13.804ZM10.9827 5.88667C10.6588 5.88483 10.3466 6.00751 10.1107 6.22933L10.0533 5.95733H9.076V11.0787L10.1867 10.8453L10.1907 9.60267C10.3507 9.71733 10.5867 9.88 10.9773 9.88C11.7733 9.88 12.4973 9.24667 12.4973 7.85467C12.4933 6.58133 11.76 5.88667 10.9827 5.88667ZM10.716 8.91333C10.6187 8.91932 10.5212 8.90392 10.4304 8.86822C10.3397 8.83252 10.2578 8.77737 10.1907 8.70667L10.1867 7.07733C10.2534 7.00449 10.3356 6.94744 10.4271 6.9103C10.5187 6.87317 10.6174 6.8569 10.716 6.86267C11.12 6.86267 11.4 7.31067 11.4 7.88533C11.4 8.47467 11.124 8.91333 10.716 8.91333ZM7.54667 5.628L8.66267 5.39067V4.5L7.54667 4.73333V5.628ZM7.54667 5.96133H8.88V9.804H7.54667V5.96133ZM6.35067 6.28667L6.28 5.96133H5.32V9.80667H6.43067V7.2C6.69333 6.86267 7.13733 6.924 7.276 6.972V5.96133C7.13333 5.908 6.61333 5.812 6.35067 6.28667ZM4.12933 5.00933L3.044 5.236L3.04 8.756C3.04 9.40533 3.53333 9.884 4.19067 9.884C4.556 9.884 4.82267 9.81733 4.96933 9.73867V8.848C4.82667 8.904 4.124 9.10667 4.124 8.456V6.89733H4.96933V5.96133H4.124L4.12933 5.00933ZM1.124 7.07733C1.124 6.90667 1.26667 6.84 1.50267 6.84C1.84 6.84 2.26667 6.94133 2.604 7.12133V6.08933C2.25312 5.95235 1.87933 5.88356 1.50267 5.88667C0.6 5.88667 0 6.35333 0 7.13067C0 8.34267 1.68933 8.14933 1.68933 8.672C1.68933 8.87333 1.51067 8.93867 1.26267 8.93867C0.893333 8.93867 0.422667 8.79067 0.0493333 8.588V9.63333C0.462667 9.80933 0.88 9.884 1.26267 9.884C2.18667 9.884 2.82267 9.43067 2.82267 8.64533C2.81733 7.336 1.124 7.56933 1.124 7.07733Z" fill="white"/>
  </g>
  <defs>
    <clipPath id="clip0_584_12073">
      <rect width="16" height="16" fill="white"/>
    </clipPath>
  </defs>
</svg>