<svg xmlns="http://www.w3.org/2000/svg" width="16" height="16" viewBox="0 0 16 16" fill="none">
  <path fill-rule="evenodd" clip-rule="evenodd" d="M4.79011 1.79351C5.00363 1.88196 5.14286 2.09032 5.14286 2.32145V4.03573H7.42857C7.74416 4.03573 8 4.29157 8 4.60716C8 4.92275 7.74416 5.17859 7.42857 5.17859H4.57143C4.25584 5.17859 4 4.92275 4 4.60716V3.701L1.37955 6.32144L4 8.94189V8.03573C4 7.72014 4.25584 7.4643 4.57143 7.4643H10.8571V5.75002C10.8571 5.5189 10.9964 5.31053 11.2099 5.22209C11.4234 5.13364 11.6692 5.18253 11.8326 5.34596L15.8326 9.34596C16.0558 9.56911 16.0558 9.93092 15.8326 10.1541L11.8326 14.1541C11.6692 14.3175 11.4234 14.3664 11.2099 14.2779C10.9964 14.1895 10.8571 13.9811 10.8571 13.75V12.0357H9.14286C8.82727 12.0357 8.57143 11.7799 8.57143 11.4643C8.57143 11.1487 8.82727 10.8929 9.14286 10.8929H11.4286C11.7442 10.8929 12 11.1487 12 11.4643V12.3705L14.6204 9.75002L12 7.12957V8.03573C12 8.35132 11.7442 8.60716 11.4286 8.60716H5.14286V10.3214C5.14286 10.5526 5.00363 10.7609 4.79011 10.8494C4.57658 10.9378 4.3308 10.8889 4.16737 10.7255L0.167368 6.72551C-0.0557892 6.50235 -0.0557892 6.14054 0.167368 5.91738L4.16737 1.91738C4.3308 1.75396 4.57658 1.70507 4.79011 1.79351Z" fill="white"/>
</svg>