<svg xmlns="http://www.w3.org/2000/svg" width="16" height="17" viewBox="0 0 16 17" fill="none">
  <path d="M9.99998 8.5C9.99998 9.60457 9.10455 10.5 7.99998 10.5C6.89541 10.5 5.99998 9.60457 5.99998 8.5C5.99998 7.39543 6.89541 6.5 7.99998 6.5C9.10455 6.5 9.99998 7.39543 9.99998 8.5Z" fill="#636366"/>
  <path d="M9.49998 2.5C9.49998 3.32843 8.82841 4 7.99998 4C7.17155 4 6.49998 3.32843 6.49998 2.5C6.49998 1.67157 7.17155 1 7.99998 1C8.82841 1 9.49998 1.67157 9.49998 2.5Z" fill="#636366"/>
  <path d="M3.55384 4.201C4.27128 4.61521 4.51709 5.5326 4.10288 6.25003C3.68866 6.96747 2.77128 7.21329 2.05384 6.79907C1.3364 6.38486 1.09059 5.46747 1.5048 4.75003C1.91901 4.0326 2.8364 3.78678 3.55384 4.201Z" fill="#636366"/>
  <path d="M2.05384 10.201C2.77128 9.78678 3.68866 10.0326 4.10288 10.75C4.51709 11.4675 4.27128 12.3849 3.55384 12.7991C2.8364 13.2133 1.91901 12.9675 1.5048 12.25C1.09059 11.5326 1.3364 10.6152 2.05384 10.201Z" fill="#636366"/>
  <path d="M6.49998 14.5C6.49998 13.6716 7.17155 13 7.99998 13C8.82841 13 9.49998 13.6716 9.49998 14.5C9.49998 15.3284 8.82841 16 7.99998 16C7.17155 16 6.49998 15.3284 6.49998 14.5Z" fill="#636366"/>
  <path d="M12.4461 12.799C11.7287 12.3848 11.4829 11.4674 11.8971 10.75C12.3113 10.0325 13.2287 9.78671 13.9461 10.2009C14.6636 10.6151 14.9094 11.5325 14.4952 12.25C14.0809 12.9674 13.1636 13.2132 12.4461 12.799Z" fill="#636366"/>
  <path d="M13.9461 6.799C13.2287 7.21322 12.3113 6.9674 11.8971 6.24997C11.4829 5.53253 11.7287 4.61514 12.4461 4.20093C13.1636 3.78671 14.0809 4.03253 14.4952 4.74997C14.9094 5.4674 14.6636 6.38479 13.9461 6.799Z" fill="#636366"/>
  <path d="M7.99998 10.5C9.10455 10.5 9.99998 9.60457 9.99998 8.5C9.99998 7.39543 9.10455 6.5 7.99998 6.5M7.99998 10.5C6.89541 10.5 5.99998 9.60457 5.99998 8.5C5.99998 7.39543 6.89541 6.5 7.99998 6.5M7.99998 10.5V13M7.99998 6.5V4M7.99998 4C8.82841 4 9.49998 3.32843 9.49998 2.5C9.49998 1.67157 8.82841 1 7.99998 1C7.17155 1 6.49998 1.67157 6.49998 2.5C6.49998 3.32843 7.17155 4 7.99998 4ZM4.10288 6.25003C4.51709 5.5326 4.27128 4.61521 3.55384 4.201C2.8364 3.78678 1.91901 4.0326 1.5048 4.75003C1.09059 5.46747 1.3364 6.38486 2.05384 6.79907C2.77128 7.21329 3.68866 6.96747 4.10288 6.25003ZM4.10288 6.25003L6.26794 7.50003M4.10288 10.75C3.68866 10.0326 2.77128 9.78678 2.05384 10.201C1.3364 10.6152 1.09059 11.5326 1.5048 12.25C1.91901 12.9675 2.8364 13.2133 3.55384 12.7991C4.27128 12.3849 4.51709 11.4675 4.10288 10.75ZM4.10288 10.75L6.26794 9.50003M7.99998 13C7.17155 13 6.49998 13.6716 6.49998 14.5C6.49998 15.3284 7.17155 16 7.99998 16C8.82841 16 9.49998 15.3284 9.49998 14.5C9.49998 13.6716 8.82841 13 7.99998 13ZM11.8971 10.75C11.4829 11.4674 11.7287 12.3848 12.4461 12.799C13.1636 13.2132 14.0809 12.9674 14.4952 12.25C14.9094 11.5325 14.6636 10.6151 13.9461 10.2009C13.2287 9.78671 12.3113 10.0325 11.8971 10.75ZM11.8971 10.75L9.73202 9.49997M11.8971 6.24997C12.3113 6.9674 13.2287 7.21322 13.9461 6.799C14.6636 6.38479 14.9094 5.4674 14.4952 4.74997C14.0809 4.03253 13.1636 3.78671 12.4461 4.20093C11.7287 4.61514 11.4829 5.53253 11.8971 6.24997ZM11.8971 6.24997L9.73202 7.49997" stroke="#636366" stroke-linecap="round"/>
</svg>