<svg xmlns="http://www.w3.org/2000/svg" width="16" height="17" viewBox="0 0 16 17" fill="none">
  <g clip-path="url(#clip0_594_4702)">
    <path fill-rule="evenodd" clip-rule="evenodd" d="M12.8883 8.5C12.1517 8.5 11.555 7.905 11.555 7.16667C11.555 6.42833 12.1517 5.83333 12.8883 5.83333C13.6267 5.83333 14.2217 6.42833 14.2217 7.16667C14.2217 7.905 13.6267 8.5 12.8883 8.5ZM10.2583 5.20333C9.52167 5.20333 8.925 4.60833 8.925 3.87C8.925 3.13167 9.52167 2.53667 10.2583 2.53667C10.9967 2.53667 11.5917 3.13167 11.5917 3.87C11.5917 4.60833 10.9967 5.20333 10.2583 5.20333ZM5.96333 5.24167C5.225 5.24167 4.63 4.645 4.63 3.90833C4.63 3.17 5.225 2.575 5.96333 2.575C6.70167 2.575 7.29667 3.17 7.29667 3.90833C7.29667 4.645 6.70167 5.24167 5.96333 5.24167ZM3.11167 8.5C2.37333 8.5 1.77833 7.905 1.77833 7.16667C1.77833 6.42833 2.37333 5.83333 3.11167 5.83333C3.84833 5.83333 4.445 6.42833 4.445 7.16667C4.445 7.905 3.84833 8.5 3.11167 8.5ZM8 0.5C3.58333 0.5 0 4.08333 0 8.5C0 12.9167 3.58333 16.5 8 16.5C8.73833 16.5 9.33333 15.905 9.33333 15.1667C9.33333 14.82 9.205 14.5083 8.98667 14.2733C8.77833 14.0383 8.65333 13.7317 8.65333 13.39C8.65333 12.6517 9.24833 12.0567 9.98667 12.0567H11.555C14.0083 12.0567 16 10.065 16 7.61167C16 3.68167 12.4167 0.5 8 0.5Z" fill="#636366"/>
  </g>
  <defs>
    <clipPath id="clip0_594_4702">
      <rect width="16" height="16" fill="white" transform="translate(0 0.5)"/>
    </clipPath>
  </defs>
</svg>