<svg xmlns="http://www.w3.org/2000/svg" width="16" height="17" viewBox="0 0 16 17" fill="none">
  <path fill-rule="evenodd" clip-rule="evenodd" d="M0 2.5C0 1.94772 0.447715 1.5 1 1.5H15C15.5523 1.5 16 1.94772 16 2.5V4.5C16 5.05228 15.5523 5.5 15 5.5H1C0.447715 5.5 0 5.05228 0 4.5V2.5ZM14.5 3.5C14.5 3.77614 14.2761 4 14 4C13.7239 4 13.5 3.77614 13.5 3.5C13.5 3.22386 13.7239 3 14 3C14.2761 3 14.5 3.22386 14.5 3.5ZM12 4C12.2761 4 12.5 3.77614 12.5 3.5C12.5 3.22386 12.2761 3 12 3C11.7239 3 11.5 3.22386 11.5 3.5C11.5 3.77614 11.7239 4 12 4ZM1 6.5C0.447715 6.5 0 6.94772 0 7.5V9.5C0 10.0523 0.447715 10.5 1 10.5H8.25606C8.87381 8.75221 10.5407 7.5 12.5 7.5C13.9136 7.5 15.175 8.15183 16 9.17133V7.5C16 6.94772 15.5523 6.5 15 6.5H1ZM8.02746 11.5H1C0.447715 11.5 0 11.9477 0 12.5V14.5C0 15.0523 0.447715 15.5 1 15.5H9.67133C8.65183 14.675 8 13.4136 8 12C8 11.831 8.00932 11.6642 8.02746 11.5ZM15.8861 14.9639C15.7548 15.1138 15.6138 15.2548 15.4639 15.3861C15.644 15.2917 15.7917 15.144 15.8861 14.9639Z" fill="#636366"/>
  <path fill-rule="evenodd" clip-rule="evenodd" d="M12.5 15.5C14.433 15.5 16 13.933 16 12C16 10.067 14.433 8.5 12.5 8.5C10.567 8.5 9 10.067 9 12C9 13.933 10.567 15.5 12.5 15.5ZM14.4304 10.761C14.5745 10.5254 14.5004 10.2177 14.2649 10.0735C14.0293 9.92938 13.7216 10.0035 13.5774 10.239L12.1194 12.6217L11.3989 11.6934C11.2296 11.4753 10.9155 11.4357 10.6973 11.605C10.4792 11.7743 10.4396 12.0884 10.6089 12.3065L11.7731 13.8066C11.8738 13.9363 12.0318 14.0083 12.1958 13.9992C12.3598 13.9901 12.5088 13.9011 12.5946 13.761L14.4304 10.761Z" fill="#636366"/>
</svg>