<svg xmlns="http://www.w3.org/2000/svg" width="16" height="17" viewBox="0 0 16 17" fill="none">
  <g clip-path="url(#clip0_594_4711)">
    <path d="M8 16.5C12.3756 16.5 16 12.8833 16 8.5C16 4.12439 12.3756 0.5 7.99226 0.5C3.61665 0.5 0 4.12439 0 8.5C0 12.8833 3.62439 16.5 8 16.5ZM2.69506 5.56486C2.69506 7.25315 3.85673 8.21346 5.93998 8.21346C6.19555 8.21346 6.34269 8.4303 6.1878 8.67038C5.82381 9.24347 5.70765 9.56099 5.70765 9.97919C5.70765 11.0324 6.606 11.5591 7.25653 11.8146L6.96999 13.0227C6.71442 14.107 7.89158 14.6258 8.68925 13.774L10.5634 11.7527C11.183 11.0789 11.4463 10.5678 11.4463 10.0102C11.4463 9.59971 10.9739 8.77106 10.4937 8.32962C10.0368 7.89593 9.58761 7.82623 8.81317 7.82623H8.41045L7.99226 7.01307L9.14618 6.57938C9.8122 7.00532 10.1375 7.2454 10.5092 7.2454C11.2294 7.2454 11.516 6.45547 10.9894 5.89013L9.78122 4.61229C9.63408 4.46515 9.64182 4.34124 9.76573 4.18635C10.1065 3.81462 10.5634 3.28025 10.5634 2.67619C10.5634 2.51355 10.5324 2.36641 10.4472 2.21152C12.9564 3.21055 14.7609 5.66554 14.7609 8.5C14.7609 12.1941 11.6941 15.2609 8 15.2609C4.30591 15.2609 1.23911 12.1941 1.23911 8.5C1.23911 6.8272 1.86641 5.27832 2.90416 4.08567C2.77251 4.55808 2.69506 5.06147 2.69506 5.56486Z" fill="#636366"/>
  </g>
  <defs>
    <clipPath id="clip0_594_4711">
      <rect width="16" height="16" fill="white" transform="translate(0 0.5)"/>
    </clipPath>
  </defs>
</svg>