<svg xmlns="http://www.w3.org/2000/svg" width="16" height="16" viewBox="0 0 16 16" fill="none">
  <path d="M7.99876 16C8.86942 16 9.58142 15.2613 9.58142 14.36H6.41742C6.41742 15.2613 7.12142 16 8.00009 16H7.99876ZM12.7454 11.0773V6.97333C12.7454 4.45333 11.4481 2.34533 9.18542 1.78667V1.232C9.18542 0.550667 8.65742 0 7.99876 0C7.34276 0 6.81209 0.549333 6.81209 1.23067V1.78933C4.54409 2.34667 3.25476 4.44667 3.25476 6.97333V11.076L2.23476 12.1347C1.73609 12.6507 2.08409 13.5373 2.78809 13.5373H13.2054C13.9094 13.5373 14.2654 12.6507 13.7681 12.1347L12.7468 11.076L12.7454 11.0773Z" fill="#636366"/>
</svg>