<svg xmlns="http://www.w3.org/2000/svg" width="16" height="17" viewBox="0 0 16 17" fill="none">
  <g clip-path="url(#clip0_594_4687)">
    <path fill-rule="evenodd" clip-rule="evenodd" d="M2.99988 0.500061C1.89531 0.500061 0.999878 1.39549 0.999878 2.50006V14.5001C0.999878 15.6046 1.89531 16.5001 2.99988 16.5001H12.9999C14.1044 16.5001 14.9999 15.6046 14.9999 14.5001V2.50006C14.9999 2.49341 14.9998 2.48676 14.9998 2.48013V7.50011H9.99978C8.89521 7.50011 7.99978 6.60468 7.99978 5.50011V0.50011H13.014C13.0093 0.500077 13.0046 0.500061 12.9999 0.500061H2.99988Z" fill="#636366"/>
    <path fill-rule="evenodd" clip-rule="evenodd" d="M10.6967 1.19723L14.3026 4.80312C14.7287 5.22921 14.9611 5.77567 14.9998 6.33305C14.9998 6.42532 14.925 6.50012 14.8327 6.50012H10.4998C9.67133 6.50012 8.99976 5.82855 8.99976 5.00012V0.667857C8.99976 0.57522 9.07485 0.500122 9.16749 0.500122C9.72462 0.538941 10.2708 0.77131 10.6967 1.19723Z" fill="#636366"/>
  </g>
  <defs>
    <clipPath id="clip0_594_4687">
      <rect width="16" height="16" fill="white" transform="translate(0 0.5)"/>
    </clipPath>
  </defs>
</svg>