<svg xmlns="http://www.w3.org/2000/svg" width="16" height="16" viewBox="0 0 16 16" fill="none">
  <path fill-rule="evenodd" clip-rule="evenodd" d="M5.09985 8.20866C5.09985 8.82171 4.82784 9.22354 4.39201 9.22354C4.12515 9.22354 3.99224 9.06281 3.99224 8.81862C3.99224 8.31994 4.31165 8.05411 5.10088 7.95623V8.20866H5.09985ZM6.1477 8.57134V8.63316C6.1477 9.07723 6.02303 9.2493 5.8726 9.2493C5.76029 9.2493 5.7129 9.18542 5.7129 8.87116V7.73883C5.7129 7.40809 5.69744 7.15875 5.50477 6.9599C5.33064 6.78474 4.97106 6.68377 4.59602 6.68274H4.58983C3.95618 6.68274 3.55847 7.00832 3.55847 7.38337C3.55847 7.59458 3.71302 7.74192 3.93454 7.74192H3.94073C4.14061 7.74192 4.29619 7.61519 4.29619 7.45343C4.29619 7.27518 4.12103 7.18966 4.018 7.13918L3.96648 7.11239C3.99945 7.02481 4.18285 6.87953 4.52801 6.87953C4.9556 6.87953 5.10088 7.05469 5.10088 7.50804V7.75841C3.87891 7.91708 3.29883 8.24988 3.29883 8.79286C3.29883 9.20499 3.61823 9.45536 4.17873 9.45536C4.62899 9.45536 4.94942 9.27093 5.13797 8.91135C5.18434 9.3513 5.4615 9.45021 5.67477 9.45021C6.21673 9.45021 6.34243 9.15863 6.34243 8.67334V8.57031H6.14667L6.1477 8.57134Z" fill="#636366"/>
  <path fill-rule="evenodd" clip-rule="evenodd" d="M7.88204 6.79101V6.93731L7.91295 6.93834C8.24472 6.95586 8.38691 6.9981 8.38691 7.17944C8.37965 7.29617 8.34657 7.40984 8.29005 7.51224L7.72131 8.67651L7.07838 7.28969C7.03511 7.19284 7.00935 7.15368 7.00935 7.09392C7.00935 6.98059 7.09384 6.94453 7.45445 6.93937L7.48639 6.93731V6.79101H5.74719V6.93834H5.7781C6.22939 6.94453 6.30976 7.13514 6.45091 7.44115L7.36482 9.38847C7.28428 9.57408 7.18955 9.7532 7.08147 9.92425C6.89601 10.22 6.71674 10.3704 6.49006 10.3704C6.42824 10.3704 6.40867 10.3601 6.40352 10.357C6.41596 10.3414 6.42938 10.3266 6.4437 10.3127C6.50346 10.254 6.59413 10.1653 6.59413 10.017C6.59413 9.7934 6.42618 9.63884 6.18715 9.63884C5.9275 9.63884 5.73895 9.82018 5.73895 10.0706C5.73895 10.3817 6.00169 10.5909 6.39321 10.5909C6.74146 10.5909 7.03099 10.3951 7.27209 9.99843C7.30197 9.94794 7.33081 9.8954 7.35863 9.8377L8.5157 7.52769C8.70116 7.16502 8.93916 6.98265 9.28845 6.93834L9.3173 6.93422V6.79101H7.88204ZM1.43937 6.10068C1.43937 5.72152 1.38477 5.69885 1.86593 5.69885C2.62838 5.69885 2.87978 6.06153 2.87978 6.72507C2.87978 7.3443 2.5985 7.59261 1.80411 7.59261H1.43937V6.10171V6.10068ZM1.91333 7.79249C2.9993 7.79249 3.61132 7.35254 3.61132 6.69416C3.61132 6.16766 3.21361 5.5 1.84739 5.5H0V5.64013H0.0298796C0.662504 5.64631 0.735657 5.7514 0.735657 6.2676V8.55906C0.735657 9.07422 0.662504 9.18035 0.0298796 9.1855H0V9.32562H2.22346V9.1855H2.19255C1.51253 9.1855 1.43937 9.08659 1.43937 8.55906V7.79249H1.91333Z" fill="#636366"/>
  <path fill-rule="evenodd" clip-rule="evenodd" d="M12.0782 6.96204V5.5H8.72759V5.64013H8.75541C9.34167 5.64631 9.40658 5.75346 9.40658 6.27687V8.60233C9.40658 9.12574 9.34167 9.23289 8.75541 9.23805H8.72656V9.3792H12.1205V7.78219H11.9865C11.8938 8.79191 11.4332 9.16798 10.5039 9.17313C10.0526 9.1752 10.0907 9.12883 10.0907 8.63736V7.47309L10.1587 7.46897C10.7316 7.46897 10.9655 7.71212 11.0098 8.35711H11.1365V6.45821H11.0108C10.9758 7.07332 10.7223 7.27423 10.1196 7.27423H10.0907V6.17693C10.0907 5.74831 10.0856 5.70091 10.4534 5.70091C11.5054 5.70091 11.8207 6.12438 11.9587 6.96204H12.0772M15.9595 8.98974C15.67 8.98974 15.5298 8.8867 15.3083 8.65797L14.3347 7.68946L14.3542 7.66988C14.3851 7.64103 14.823 7.19799 15.4485 6.59524C15.604 6.77761 15.7019 7.02386 15.7617 7.34429H15.8997V5.98426H14.515V6.12026C14.8498 6.18002 15.1064 6.27996 15.2939 6.43966C14.6942 7.01871 14.2368 7.4803 14.2048 7.51121L14.1853 7.52975L14.1482 7.4906L13.6886 7.02901L13.6845 7.02489C13.6289 6.96925 13.5897 6.92907 13.5897 6.8858C13.5897 6.81573 13.837 6.83634 13.9308 6.83634H13.9648V6.69003H12.3636V6.83531L12.3966 6.83634C12.7284 6.84252 12.7407 6.92804 12.9056 7.09495L13.6979 7.87801L13.7463 7.92643L12.4625 9.13604H12.7778C12.8757 9.04331 13.6732 8.29838 13.9009 8.08098C14.0503 8.23553 14.4779 8.66518 14.4779 8.66518C14.5809 8.76821 14.6396 8.83828 14.6396 8.89495C14.6396 8.97428 14.5242 8.98974 14.2522 8.98974H14.1719V9.13604H15.9997V8.98974H15.9595Z" fill="#636366"/>
</svg>