<svg xmlns="http://www.w3.org/2000/svg" width="16" height="16" viewBox="0 0 16 16" fill="none">
  <path d="M14.7522 5.83331C14.8589 6.31864 14.8455 6.90797 14.7175 7.60131C14.2042 10.1666 12.5415 11.4493 9.72688 11.4493H9.33888C9.19598 11.4474 9.05738 11.4982 8.94955 11.592C8.8382 11.6862 8.76323 11.8164 8.73755 11.96L8.70288 12.1253L8.21621 15.124L8.19888 15.2533C8.17378 15.3967 8.09892 15.5266 7.98747 15.6203C7.87602 15.7139 7.73512 15.7653 7.58955 15.7653H5.37355C5.31806 15.7678 5.26275 15.7573 5.21204 15.7346C5.16134 15.7119 5.11665 15.6777 5.08155 15.6346C5.04641 15.5915 5.02107 15.5413 5.00725 15.4874C4.99344 15.4336 4.99149 15.3773 5.00155 15.3226C5.05488 14.9986 5.13355 14.5133 5.23621 13.8666C5.38962 12.8971 5.54696 11.9282 5.70821 10.96L5.94821 9.50664C5.97621 9.29331 6.10288 9.18664 6.32688 9.18664H7.48421C8.18353 9.20597 8.88275 9.14513 9.56821 9.00531C10.5989 8.77997 11.4429 8.36397 12.1015 7.75731C12.7029 7.20797 13.1602 6.49731 13.4722 5.62531C13.6135 5.22131 13.7162 4.83731 13.7802 4.47331C13.7869 4.43864 13.7935 4.41597 13.8029 4.40797C13.8066 4.40374 13.8115 4.40063 13.8169 4.39898C13.8223 4.39733 13.8281 4.39721 13.8335 4.39864C13.8455 4.40264 13.8629 4.41197 13.8869 4.42931C14.3522 4.77064 14.6402 5.23864 14.7522 5.83331ZM13.2322 3.38931C13.2322 4.00797 13.0989 4.68931 12.8269 5.43464C12.3562 6.78131 11.4669 7.69064 10.1602 8.16397C9.44231 8.40391 8.69048 8.52681 7.93355 8.52797C7.93355 8.53464 7.66955 8.53731 7.13888 8.53731L6.34421 8.52797C5.75621 8.52797 5.40821 8.80531 5.30288 9.35997C5.04728 10.8902 4.79706 12.4213 4.55221 13.9533C4.54555 14.0106 4.51088 14.04 4.44555 14.04H1.84021C1.77924 14.0415 1.71868 14.0295 1.66289 14.0048C1.60711 13.9801 1.55747 13.9434 1.51755 13.8973C1.47636 13.8531 1.44582 13.8002 1.42825 13.7424C1.41069 13.6846 1.40657 13.6236 1.41621 13.564L3.46688 0.815973C3.49338 0.652646 3.57875 0.50467 3.70688 0.399973C3.83367 0.292058 3.99506 0.233371 4.16155 0.234639H9.44288C9.64288 0.234639 9.93088 0.273306 10.3042 0.347973C10.6775 0.422639 11.0069 0.515973 11.2895 0.625306C11.9189 0.862639 12.4002 1.21731 12.7322 1.69197C13.0655 2.16531 13.2322 2.73197 13.2322 3.38931Z" fill="#636366"/>
</svg>