<svg xmlns="http://www.w3.org/2000/svg" width="16" height="16" viewBox="0 0 16 16" fill="none">
  <g clip-path="url(#clip0_590_4227)">
    <path fill-rule="evenodd" clip-rule="evenodd" d="M11.467 7.32716C11.4431 6.7413 11.2848 6.17012 11.0055 5.66196L8.50137 1.10246C8.30906 0.7556 8.17857 0.382837 8.10577 0L8 0.189979C7.6957 0.744824 7.53557 1.37357 7.53557 2.01349C7.53557 2.65342 7.6957 3.28216 8 3.83701L10.0055 7.48547C10.6236 8.61383 10.6236 10.0041 10.0055 11.1339L9.89972 11.3239C9.82517 10.9364 9.6911 10.564 9.50275 10.2215L7.67033 6.88387L6.49863 4.74948C6.31005 4.40702 6.17597 4.03466 6.10165 3.64703L5.99725 3.83845C5.69389 4.39158 5.5338 5.0182 5.53283 5.65616C5.53187 6.29411 5.69007 6.92126 5.99176 7.4754L8 11.1339C8.30495 11.6888 8.46546 12.3179 8.46546 12.9582C8.46546 13.5985 8.30495 14.2275 8 14.7824L7.8956 14.9724C7.82115 14.585 7.68757 14.2127 7.5 13.8699L4.99451 9.31043C4.66444 8.70903 4.50437 8.02169 4.53297 7.3286C1.85165 8.06549 0 9.6285 0 11.4391C0 13.9577 3.58242 16 8 16C12.4176 16 16 13.9577 16 11.4391C16 9.6285 14.1497 8.06405 11.467 7.32716Z" fill="#636366"/>
  </g>
  <defs>
    <clipPath id="clip0_590_4227">
      <rect width="16" height="16" fill="white"/>
    </clipPath>
  </defs>
</svg>